<svg xmlns="http://www.w3.org/2000/svg" viewBox="0 0 140.343 40.568"><defs><style>.a{fill:#34495e;}.b{fill:#27ae60;}.c{fill:#2ecc71;}</style></defs><g transform="translate(0 0.003)"><path class="a" d="M51.814,140.545q-1.248-2.559-2.559-5.88a74.519,74.519,0,0,1-2.384-7.123h3.21q.274,1.093.635,2.346t.775,2.512q.411,1.257.849,2.438t.81,2.126q.373-.943.8-2.126t.837-2.438q.42-1.253.786-2.512t.649-2.348H59.33a74.234,74.234,0,0,1-2.384,7.123q-1.311,3.318-2.559,5.88Z" transform="translate(-46.87 -110.538)"/><path class="a" d="M114.384,104.146a1.724,1.724,0,0,1-.548,1.347,1.854,1.854,0,0,1-1.289.494,1.886,1.886,0,0,1-1.318-.5,1.724,1.724,0,0,1-.548-1.347,1.753,1.753,0,0,1,.548-1.367,1.888,1.888,0,0,1,1.318-.5,1.857,1.857,0,0,1,1.293.5A1.753,1.753,0,0,1,114.384,104.146Zm-.323,16.808h-3.008v-13h3.008Z" transform="translate(-96.354 -90.948)"/><path class="a" d="M142.12,110.546l3.008-.5v3.929h4.625v2.512h-4.625v5.3a3.877,3.877,0,0,0,.5,2.245,1.963,1.963,0,0,0,1.69.674,5.5,5.5,0,0,0,1.455-.175,9.391,9.391,0,0,0,1.006-.323l.5,2.389a11.271,11.271,0,0,1-1.367.449,7.425,7.425,0,0,1-1.989.236,6.286,6.286,0,0,1-2.326-.373,3.421,3.421,0,0,1-1.479-1.082,4.286,4.286,0,0,1-.77-1.715,10.683,10.683,0,0,1-.225-2.3Z" transform="translate(-120.734 -96.975)"/><path class="a" d="M190.24,126.1a7.355,7.355,0,0,1,2.512.373,4.016,4.016,0,0,1,1.628,1.044,3.9,3.9,0,0,1,.871,1.63,7.972,7.972,0,0,1,.26,2.1v7.882q-.7.148-2.1.359a21.493,21.493,0,0,1-3.17.211,9.481,9.481,0,0,1-2.139-.224,4.477,4.477,0,0,1-1.652-.721,3.39,3.39,0,0,1-1.069-1.293,4.49,4.49,0,0,1-.386-1.958,3.792,3.792,0,0,1,.436-1.89,3.592,3.592,0,0,1,1.181-1.255,5.12,5.12,0,0,1,1.729-.7,9.737,9.737,0,0,1,2.052-.211,9.245,9.245,0,0,1,1.044.063,9.793,9.793,0,0,1,1.17.211v-.5a3.888,3.888,0,0,0-.123-.995,2.056,2.056,0,0,0-.436-.833,2.02,2.02,0,0,0-.822-.559,3.551,3.551,0,0,0-1.28-.2,11.414,11.414,0,0,0-1.915.148,8.513,8.513,0,0,0-1.417.348l-.373-2.438a11.838,11.838,0,0,1,1.673-.4A13.073,13.073,0,0,1,190.24,126.1Zm.247,11.225a11.225,11.225,0,0,0,2.113-.148v-3.345a5.87,5.87,0,0,0-.721-.148,6.757,6.757,0,0,0-1.046-.074,6.958,6.958,0,0,0-1.006.074,3.129,3.129,0,0,0-.92.274,1.679,1.679,0,0,0-.66.559,1.885,1.885,0,0,0,.427,2.377,3.471,3.471,0,0,0,1.814.42Z" transform="translate(-153.983 -109.421)"/><path class="a" d="M255.651,132.8a6.337,6.337,0,0,0-.51-2.948,1.971,1.971,0,0,0-1.9-.9,8.9,8.9,0,0,0-1.093.074q-.6.074-.9.123v10.493H248.24V127.075a19.943,19.943,0,0,1,2.276-.471,18.818,18.818,0,0,1,2.972-.225,5.92,5.92,0,0,1,2.2.348,4.265,4.265,0,0,1,1.43.92,5.757,5.757,0,0,1,.7-.422,7.3,7.3,0,0,1,.945-.411,8.739,8.739,0,0,1,1.107-.31,5.713,5.713,0,0,1,1.181-.123,6.217,6.217,0,0,1,2.5.436,3.679,3.679,0,0,1,1.542,1.219,4.741,4.741,0,0,1,.77,1.888,12.974,12.974,0,0,1,.211,2.425v7.31h-3.008V132.8a6.461,6.461,0,0,0-.5-2.948,1.97,1.97,0,0,0-1.915-.9,3.945,3.945,0,0,0-1.367.236,4.467,4.467,0,0,0-.97.449,6.634,6.634,0,0,1,.274,1.318,14.075,14.075,0,0,1,.074,1.493v7.184h-3.008Z" transform="translate(-203.032 -109.636)"/><path class="a" d="M347.168,140.553H344.16v-13h3.008Z" transform="translate(-277.418 -110.546)"/><path class="a" d="M374.6,127.016a20.034,20.034,0,0,1,2.263-.471,19.428,19.428,0,0,1,3.082-.225,7.107,7.107,0,0,1,2.66.436,4.157,4.157,0,0,1,1.7,1.219,4.654,4.654,0,0,1,.9,1.888,10.565,10.565,0,0,1,.26,2.425v7.31H382.46v-6.841a9.893,9.893,0,0,0-.137-1.778,3.142,3.142,0,0,0-.449-1.192,1.8,1.8,0,0,0-.846-.673,3.562,3.562,0,0,0-1.3-.211,10.067,10.067,0,0,0-1.194.074q-.62.074-.92.123v10.493H374.6Z" transform="translate(-301.024 -109.59)"/><path class="b" d="M443.763,119.065a8.185,8.185,0,0,1-2.225-.3,3.417,3.417,0,0,1-1.405-.784,2.775,2.775,0,0,1-.734-1.268,6.456,6.456,0,0,1-.211-1.729V100.018l3.008-.5v14.893a4.076,4.076,0,0,0,.092.929,1.47,1.47,0,0,0,.31.635,1.4,1.4,0,0,0,.608.4,4.715,4.715,0,0,0,.983.211Z" transform="translate(-351.111 -88.809)"/><path class="b" d="M481.6,132.889a8.388,8.388,0,0,1-.449,2.811,6.2,6.2,0,0,1-1.268,2.164,5.71,5.71,0,0,1-1.978,1.394,6.394,6.394,0,0,1-2.546.489,6.306,6.306,0,0,1-2.537-.5,5.743,5.743,0,0,1-1.964-1.394,6.364,6.364,0,0,1-1.282-2.164,8.188,8.188,0,0,1-.449-2.811,8.081,8.081,0,0,1,.449-2.8,6.288,6.288,0,0,1,1.293-2.151,5.732,5.732,0,0,1,1.978-1.381,6.376,6.376,0,0,1,2.512-.485,6.472,6.472,0,0,1,2.523.485,5.57,5.57,0,0,1,1.976,1.381,6.4,6.4,0,0,1,1.282,2.151A8.082,8.082,0,0,1,481.6,132.889Zm-3.085,0a5.076,5.076,0,0,0-.833-3.071,2.954,2.954,0,0,0-4.649,0,5.052,5.052,0,0,0-.833,3.071,5.218,5.218,0,0,0,.833,3.107,2.934,2.934,0,0,0,4.649,0,5.117,5.117,0,0,0,.844-3.107Z" transform="translate(-374.328 -109.397)"/><path class="b" d="M535.329,132.953a7.982,7.982,0,0,1,.449-2.694,6.4,6.4,0,0,1,1.282-2.175,5.857,5.857,0,0,1,2.021-1.444,6.631,6.631,0,0,1,2.694-.523,9.09,9.09,0,0,1,3.48.673l-.647,2.47a6.843,6.843,0,0,0-1.181-.373,6.365,6.365,0,0,0-1.405-.148,3.316,3.316,0,0,0-2.694,1.107,4.7,4.7,0,0,0-.92,3.121,4.914,4.914,0,0,0,.871,3.071,3.459,3.459,0,0,0,2.934,1.123,7.733,7.733,0,0,0,1.518-.148,7.2,7.2,0,0,0,1.293-.373l.424,2.472a6.3,6.3,0,0,1-1.5.449,10.693,10.693,0,0,1-2.077.2,7.555,7.555,0,0,1-2.9-.51,5.494,5.494,0,0,1-2.038-1.417,5.867,5.867,0,0,1-1.206-2.164A8.982,8.982,0,0,1,535.329,132.953Z" transform="translate(-425.669 -109.434)"/><path class="b" d="M591.959,126.1a7.355,7.355,0,0,1,2.512.373,4.016,4.016,0,0,1,1.628,1.044,3.9,3.9,0,0,1,.871,1.63,7.969,7.969,0,0,1,.26,2.1v7.882q-.7.148-2.1.359a21.494,21.494,0,0,1-3.17.211,9.481,9.481,0,0,1-2.14-.224,4.475,4.475,0,0,1-1.652-.721,3.39,3.39,0,0,1-1.069-1.293,4.49,4.49,0,0,1-.386-1.964,3.791,3.791,0,0,1,.435-1.89,3.592,3.592,0,0,1,1.181-1.255,5.121,5.121,0,0,1,1.729-.7,9.737,9.737,0,0,1,2.052-.211,9.242,9.242,0,0,1,1.044.063,9.8,9.8,0,0,1,1.17.211v-.5a3.891,3.891,0,0,0-.123-.995,2.056,2.056,0,0,0-.436-.833,2.02,2.02,0,0,0-.822-.559,3.552,3.552,0,0,0-1.28-.2,11.415,11.415,0,0,0-1.915.148,8.514,8.514,0,0,0-1.417.348l-.373-2.438a11.84,11.84,0,0,1,1.666-.4A13.074,13.074,0,0,1,591.959,126.1Zm.247,11.225a11.226,11.226,0,0,0,2.113-.148v-3.345a5.871,5.871,0,0,0-.721-.148,6.757,6.757,0,0,0-1.046-.074,6.959,6.959,0,0,0-1.006.074,3.13,3.13,0,0,0-.92.274,1.678,1.678,0,0,0-.66.559,1.884,1.884,0,0,0,.427,2.377,3.471,3.471,0,0,0,1.814.42Z" transform="translate(-465.515 -109.421)"/><path class="b" d="M654.313,119.065a8.185,8.185,0,0,1-2.225-.3,3.417,3.417,0,0,1-1.405-.784,2.775,2.775,0,0,1-.734-1.268,6.454,6.454,0,0,1-.211-1.729V100.018l3.008-.5v14.893a4.076,4.076,0,0,0,.088.92,1.47,1.47,0,0,0,.31.635,1.4,1.4,0,0,0,.608.4,4.715,4.715,0,0,0,.983.211Z" transform="translate(-514.392 -88.809)"/><path class="c" d="M331.257,57.085a14.866,14.866,0,0,1,3.055-.622,8.345,8.345,0,0,0-3.965-3.011,18.462,18.462,0,0,0-4.557-.754,7.768,7.768,0,0,1-2.759-.873.209.209,0,0,0-.3.256,38.415,38.415,0,0,0,1.06,3.7,6.9,6.9,0,0,0,3.35,3.724,3.592,3.592,0,0,0,.59.177,6.1,6.1,0,0,1,1.457-1.54A7.317,7.317,0,0,1,330.7,57.3Z" transform="translate(-260.79 -51.8)"/><path class="b" d="M347.681,78.734a7.894,7.894,0,0,0,1.612-.449,8.282,8.282,0,0,0,4.337-4.49,48.128,48.128,0,0,0,1.378-4.78.272.272,0,0,0-.247-.366.256.256,0,0,0-.137.036,15.458,15.458,0,0,1-5.763,1.3,16.2,16.2,0,0,0-2.835.525c-.2.061-.4.126-.588.2a6.937,6.937,0,0,0-1.655.9,5.613,5.613,0,0,0-1.233,1.262,9.655,9.655,0,0,0-1.226,2.519,5.274,5.274,0,0,0-.4,1.558,2.2,2.2,0,0,0,.043.406,3.474,3.474,0,0,0,.561,1.383,2.723,2.723,0,0,0,2.285.66" transform="translate(-274.913 -64.869)"/><path class="b" d="M367.42,94.37" transform="translate(-295.456 -84.815)"/><path d="M246.09,232.5" transform="translate(-201.365 -191.935)"/><path class="c" d="M346,88.883s3.722-5.583,7.442-5.583A29.158,29.158,0,0,0,346,88.883Z" transform="translate(-278.845 -76.23)"/></g></svg>